IKResults
version=1
nRows=38
nColumns=24
inDegrees=yes

Units are S.I. units (second, meters, Newtons, ...)
If the header above contains a line with 'inDegrees', this indicates whether rotational values are in degrees (yes) or radians (no).

endheader
time	pelvis_tilt	pelvis_list	pelvis_rotation	pelvis_tx	pelvis_ty	pelvis_tz	hip_flexion_r	hip_adduction_r	hip_rotation_r	knee_angle_r	ankle_angle_r	subtalar_angle_r	mtp_angle_r	hip_flexion_l	hip_adduction_l	hip_rotation_l	knee_angle_l	ankle_angle_l	subtalar_angle_l	mtp_angle_l	lumbar_extension	lumbar_bending	lumbar_rotation
6.200000	9.674525	2.485640	-180.121343	0.229447	0.854444	-1.227609	16.880704	-8.404877	-34.949082	-13.453968	1.267610	11.896729	0.000000	19.164838	-15.578347	-30.128053	-16.529622	1.040228	6.993382	0.000000	2.167529	2.290601	2.965943
6.205000	9.689376	2.522224	-180.137924	0.229407	0.854445	-1.227463	16.908948	-8.383833	-34.973536	-13.490298	1.294324	11.885492	0.000000	19.177239	-15.613230	-30.145923	-16.528787	0.979064	6.955081	0.000000	2.209913	2.362987	3.013800
6.210000	9.645605	2.513979	-180.067705	0.229553	0.854444	-1.227535	16.853875	-8.392624	-34.987572	-13.480097	1.332082	11.851533	0.000000	19.169477	-15.591628	-30.062533	-16.536679	0.989481	6.974451	0.000000	2.156659	2.329354	2.952639
6.215000	9.637306	2.512846	-180.047974	0.229625	0.854423	-1.227557	16.844665	-8.396240	-34.982142	-13.481146	1.326312	11.852429	0.000000	19.172518	-15.588627	-30.060163	-16.540406	0.991815	6.974813	0.000000	2.161200	2.328819	2.947978
6.220000	9.650064	2.506773	-179.977954	0.229776	0.854441	-1.227549	16.843323	-8.405542	-35.008845	-13.449857	1.282869	11.793969	0.000000	19.224249	-15.560627	-29.966645	-16.548191	1.014271	7.017067	0.000000	2.164810	2.322478	2.840474
6.225000	9.620051	2.505725	-179.955373	0.229790	0.854445	-1.227536	16.812736	-8.412681	-34.999634	-13.459093	1.284035	11.775482	0.000000	19.213284	-15.562760	-29.960740	-16.579432	1.013371	7.018486	0.000000	2.147149	2.321674	2.842628
6.230000	9.616739	2.509124	-179.942678	0.229896	0.854502	-1.227501	16.817223	-8.412117	-35.000285	-13.460624	1.286107	11.771121	0.000000	19.220831	-15.559406	-29.961996	-16.574935	1.011160	7.018937	0.000000	2.143165	2.331718	2.848493
6.235000	9.595513	2.518092	-179.932219	0.229900	0.854485	-1.227417	16.810959	-8.421148	-35.021959	-13.501228	1.309101	11.729853	0.000000	19.209318	-15.567740	-29.956732	-16.590215	0.989209	7.014524	0.000000	2.140937	2.352251	2.875503
6.240000	9.603686	2.516339	-179.950919	0.229871	0.854466	-1.227275	16.821819	-8.429030	-34.994146	-13.503536	1.298989	11.732178	0.000000	19.202238	-15.555414	-29.967478	-16.575322	1.004734	7.003764	0.000000	2.176686	2.398565	2.817829
6.245000	9.597067	2.506815	-179.917363	0.229953	0.854422	-1.227266	16.810374	-8.441682	-34.983632	-13.491956	1.295481	11.719231	0.000000	19.231874	-15.549456	-29.940870	-16.621622	1.004266	7.007223	0.000000	2.176883	2.384714	2.804780
6.250000	9.588735	2.511638	-179.879494	0.230034	0.854400	-1.227253	16.809436	-8.446199	-34.982868	-13.513218	1.299168	11.675452	0.000000	19.253787	-15.545252	-29.869230	-16.641684	1.040850	7.026229	0.000000	2.170375	2.393472	2.762145
6.255000	9.596718	2.526883	-179.875158	0.230108	0.854405	-1.227191	16.830939	-8.437853	-34.985663	-13.530998	1.311355	11.616092	0.000000	19.275769	-15.553430	-29.840408	-16.646635	1.038312	7.003737	0.000000	2.179940	2.412950	2.838832
6.260000	9.604894	2.536825	-179.857586	0.230213	0.854397	-1.227172	16.853379	-8.433562	-34.962049	-13.551582	1.344057	11.535854	0.000000	19.305549	-15.555252	-29.788271	-16.650772	1.035366	6.963964	0.000000	2.193159	2.417047	2.873811
6.265000	9.591104	2.523433	-179.836406	0.230289	0.854385	-1.227138	16.842512	-8.454285	-34.946787	-13.555350	1.335807	11.527416	0.000000	19.320336	-15.546441	-29.779700	-16.696930	1.030965	6.960431	0.000000	2.184866	2.408394	2.867260
6.270000	9.566891	2.512376	-179.796058	0.230383	0.854373	-1.227124	16.815368	-8.471124	-34.937218	-13.554215	1.316107	11.497414	0.000000	19.319231	-15.526839	-29.730490	-16.713147	1.063107	6.974018	0.000000	2.160981	2.386131	2.866793
6.275000	9.556004	2.505527	-179.788087	0.230462	0.854364	-1.227083	16.817126	-8.487699	-34.920859	-13.575929	1.313793	11.488813	0.000000	19.323767	-15.521050	-29.720698	-16.732854	1.063882	6.977951	0.000000	2.149528	2.395474	2.856307
6.280000	9.547304	2.507842	-179.782144	0.230532	0.854361	-1.227017	16.826187	-8.498843	-34.927889	-13.608704	1.323642	11.466973	0.000000	19.330306	-15.526740	-29.725233	-16.756101	1.052817	6.977348	0.000000	2.144272	2.401431	2.897913
6.285000	9.545018	2.512498	-179.784155	0.230617	0.854357	-1.226970	16.848060	-8.507033	-34.904320	-13.649735	1.336991	11.463162	0.000000	19.335414	-15.533039	-29.728570	-16.753199	1.036640	6.973344	0.000000	2.127646	2.435880	2.862145
6.290000	9.567217	2.513051	-179.796530	0.230726	0.854345	-1.226915	16.896921	-8.516199	-34.882568	-13.685288	1.382176	11.442542	0.000000	19.365254	-15.533658	-29.732930	-16.754998	1.017547	6.954624	0.000000	2.154805	2.444816	2.912580
6.295000	9.571547	2.504678	-179.781625	0.230830	0.854337	-1.226894	16.916316	-8.537779	-34.869252	-13.711513	1.363373	11.422155	0.000000	19.387002	-15.519685	-29.704478	-16.773325	1.047618	6.965235	0.000000	2.174149	2.418951	2.976423
6.300000	9.566151	2.540099	-179.744192	0.230979	0.854389	-1.226962	16.950434	-8.519312	-35.011133	-13.812263	1.213392	11.303658	0.000000	19.423932	-15.561542	-29.673003	-16.809008	1.037190	6.991659	0.000000	2.157801	2.449077	2.930972
6.305000	9.561573	2.517774	-179.724115	0.231051	0.854314	-1.226945	16.923240	-8.535632	-34.845963	-13.740826	1.345745	11.352314	0.000000	19.435915	-15.536589	-29.655684	-16.830036	1.072230	7.002162	0.000000	2.159290	2.415961	2.937692
6.310000	9.535703	2.547080	-179.708087	0.231299	0.854368	-1.227080	16.963708	-8.523582	-34.973624	-13.878752	1.291017	11.232635	0.000000	19.447832	-15.582114	-29.656118	-16.850907	1.032067	7.001027	0.000000	2.103354	2.420632	2.962782
6.315000	9.548758	2.535984	-179.700204	0.231376	0.854282	-1.227017	16.961042	-8.528764	-34.833424	-13.812141	1.400917	11.267281	0.000000	19.479326	-15.568431	-29.632298	-16.866818	1.034793	7.003365	0.000000	2.119615	2.407194	2.958420
6.320000	9.648135	2.551735	-179.713344	0.231615	0.854189	-1.227000	17.104110	-8.519361	-34.807731	-13.851894	1.388150	11.198418	0.000000	19.615788	-15.589655	-29.622365	-16.892343	0.978412	6.963199	0.000000	2.212994	2.438962	2.970969
6.325000	9.622242	2.513883	-179.696259	0.231674	0.854130	-1.226958	17.091047	-8.568917	-34.770503	-13.881220	1.393613	11.164742	0.000000	19.605081	-15.547490	-29.598928	-16.922190	1.030503	6.955614	0.000000	2.188195	2.392883	2.948147
6.330000	9.618502	2.533442	-179.696354	0.231811	0.854157	-1.226974	17.138310	-8.567405	-34.884787	-13.993238	1.283587	11.078691	0.000000	19.620985	-15.571445	-29.597574	-16.940876	1.029028	6.956989	0.000000	2.175886	2.400424	2.989952
6.335000	9.636372	2.500716	-179.666653	0.231913	0.854099	-1.226956	17.133447	-8.591415	-34.720929	-13.912340	1.365704	11.130152	0.000000	19.670164	-15.547295	-29.541432	-16.990754	1.041448	7.009569	0.000000	2.192733	2.348635	2.967546
6.340000	9.642128	2.520099	-179.673915	0.232005	0.854077	-1.226932	17.170913	-8.582624	-34.724222	-13.963044	1.379256	11.097242	0.000000	19.690276	-15.560131	-29.570320	-16.983820	1.017504	6.984028	0.000000	2.199547	2.369483	2.987448
6.345000	9.724116	2.525510	-179.714733	0.232044	0.854028	-1.226837	17.281268	-8.579026	-34.653745	-13.986126	1.390194	11.070441	0.000000	19.778690	-15.578853	-29.549549	-17.026774	1.073292	7.001231	0.000000	2.302719	2.395693	3.028503
6.350000	9.685508	2.534064	-179.666495	0.232263	0.854015	-1.226921	17.267586	-8.582022	-34.660705	-14.036312	1.413858	10.987675	0.000000	19.789197	-15.580233	-29.541509	-17.038665	1.029343	6.964974	0.000000	2.235934	2.376879	2.976827
6.355000	9.723087	2.522696	-179.679610	0.232314	0.853940	-1.226817	17.327242	-8.603878	-34.599044	-14.063148	1.381152	10.966023	0.000000	19.841343	-15.563010	-29.511194	-17.077462	1.096202	6.941565	0.000000	2.287249	2.373976	3.001000
6.360000	9.707402	2.514783	-179.663378	0.232438	0.853950	-1.226840	17.337010	-8.624610	-34.585636	-14.106747	1.387002	10.948192	0.000000	19.861427	-15.575800	-29.479095	-17.145935	1.075600	6.961326	0.000000	2.263054	2.347601	3.005330
6.365000	9.750197	2.517543	-179.646254	0.232640	0.853851	-1.226796	17.438182	-8.644327	-34.521672	-14.205324	1.444911	10.826573	0.000000	19.956949	-15.568118	-29.437106	-17.177244	1.045432	6.904939	0.000000	2.291769	2.342188	2.980175
6.370000	9.731974	2.525388	-179.646605	0.232798	0.853885	-1.226795	17.465461	-8.653913	-34.504506	-14.282056	1.446832	10.808051	0.000000	19.975768	-15.591490	-29.430183	-17.228051	1.020690	6.890014	0.000000	2.265624	2.346736	2.947167
6.375000	9.715797	2.527437	-179.592198	0.233079	0.853853	-1.226888	17.504379	-8.677100	-34.495240	-14.389239	1.536211	10.707378	0.000000	20.047069	-15.608030	-29.348246	-17.326201	1.017813	6.863907	0.000000	2.216062	2.300843	2.906689
6.380000	9.718920	2.513380	-179.555382	0.233311	0.853771	-1.226868	17.554677	-8.716171	-34.431233	-14.469681	1.537107	10.621098	0.000000	20.125512	-15.594885	-29.253957	-17.423412	1.078845	6.820068	0.000000	2.189320	2.252261	2.950381
6.385000	9.709020	2.491890	-179.522968	0.233499	0.853716	-1.226918	17.590191	-8.756853	-34.373743	-14.551173	1.544264	10.555976	0.000000	20.186196	-15.596623	-29.175377	-17.554817	1.150069	6.855736	0.000000	2.157176	2.196965	2.916084
